<svg xmlns="http://www.w3.org/2000/svg" viewBox="0 0 1200 630" width="1200" height="630">
  <defs>
    <linearGradient id="bg" x1="0%" y1="0%" x2="100%" y2="100%">
      <stop offset="0%" stop-color="#05101f"/>
      <stop offset="50%" stop-color="#0a1e3d"/>
      <stop offset="100%" stop-color="#0c4a6e"/>
    </linearGradient>
    <radialGradient id="glow" cx="25%" cy="40%" r="55%">
      <stop offset="0%" stop-color="#0078D4" stop-opacity="0.35"/>
      <stop offset="100%" stop-color="#0078D4" stop-opacity="0"/>
    </radialGradient>
    <pattern id="grid" x="0" y="0" width="60" height="60" patternUnits="userSpaceOnUse">
      <circle cx="30" cy="30" r="2.5" fill="#38bdf8" opacity="0.14"/>
      <circle cx="0"  cy="0"  r="1.5" fill="#38bdf8" opacity="0.10"/>
      <circle cx="60" cy="0"  r="1.5" fill="#38bdf8" opacity="0.10"/>
      <circle cx="0"  cy="60" r="1.5" fill="#38bdf8" opacity="0.10"/>
      <circle cx="60" cy="60" r="1.5" fill="#38bdf8" opacity="0.10"/>
    </pattern>
  </defs>
  <rect width="1200" height="630" fill="url(#bg)"/>
  <rect width="1200" height="630" fill="url(#grid)"/>
  <ellipse cx="300" cy="250" rx="480" ry="300" fill="url(#glow)"/>
  <!-- Microsoft squares icon -->
  <g transform="translate(940,290)" opacity="0.08" fill="#38bdf8">
    <rect x="-90" y="-90" width="80" height="80"/>
    <rect x="-2"  y="-90" width="80" height="80"/>
    <rect x="-90" y="-2"  width="80" height="80"/>
    <rect x="-2"  y="-2"  width="80" height="80"/>
  </g>
  <text x="600" y="360" font-family="Arial Black,sans-serif" font-size="220" font-weight="900"
        fill="#0078D4" opacity="0.09" text-anchor="middle" dominant-baseline="middle">M365</text>
  <rect x="0" y="490" width="1200" height="140" fill="#0078D4" opacity="0.15"/>
  <rect x="0" y="490" width="1200" height="2" fill="#38bdf8" opacity="0.5"/>
  <text x="80" y="556" font-family="Arial,sans-serif" font-size="34" font-weight="700"
        fill="#7dd3fc" letter-spacing="5">MICROSOFT 365</text>
  <text x="80" y="600" font-family="Arial,sans-serif" font-size="22"
        fill="#38bdf8" opacity="0.75">Kimlik Doğrulama Yapılandırması · kursatbal.com</text>
</svg>
