<svg xmlns="http://www.w3.org/2000/svg" viewBox="0 0 1200 630" width="1200" height="630">
  <defs>
    <linearGradient id="bg" x1="0%" y1="0%" x2="100%" y2="100%">
      <stop offset="0%" stop-color="#020f0d"/>
      <stop offset="50%" stop-color="#042f2e"/>
      <stop offset="100%" stop-color="#134e4a"/>
    </linearGradient>
    <radialGradient id="glow" cx="25%" cy="40%" r="55%">
      <stop offset="0%" stop-color="#0d9488" stop-opacity="0.35"/>
      <stop offset="100%" stop-color="#0d9488" stop-opacity="0"/>
    </radialGradient>
    <pattern id="net" x="0" y="0" width="80" height="80" patternUnits="userSpaceOnUse">
      <line x1="40" y1="0"  x2="40" y2="80" stroke="#2dd4bf" stroke-width="0.5" opacity="0.12"/>
      <line x1="0"  y1="40" x2="80" y2="40" stroke="#2dd4bf" stroke-width="0.5" opacity="0.12"/>
      <circle cx="40" cy="40" r="3" fill="#2dd4bf" opacity="0.18"/>
      <circle cx="0"  cy="0"  r="2" fill="#2dd4bf" opacity="0.12"/>
      <circle cx="80" cy="0"  r="2" fill="#2dd4bf" opacity="0.12"/>
      <circle cx="0"  cy="80" r="2" fill="#2dd4bf" opacity="0.12"/>
      <circle cx="80" cy="80" r="2" fill="#2dd4bf" opacity="0.12"/>
    </pattern>
  </defs>
  <rect width="1200" height="630" fill="url(#bg)"/>
  <rect width="1200" height="630" fill="url(#net)"/>
  <ellipse cx="300" cy="250" rx="480" ry="300" fill="url(#glow)"/>
  <!-- Network topology icon -->
  <g transform="translate(950,300)" opacity="0.09" stroke="#2dd4bf" fill="none" stroke-width="5">
    <circle cx="0"   cy="-80" r="22"/>
    <circle cx="-80" cy="40"  r="22"/>
    <circle cx="80"  cy="40"  r="22"/>
    <circle cx="0"   cy="0"   r="14" fill="#2dd4bf" stroke="none"/>
    <line x1="0"   y1="-58" x2="0"   y2="-14"/>
    <line x1="-66" y1="28"  x2="-11" y2="7"/>
    <line x1="66"  y1="28"  x2="11"  y2="7"/>
  </g>
  <text x="600" y="365" font-family="Arial Black,sans-serif" font-size="170" font-weight="900"
        fill="#0d9488" opacity="0.09" text-anchor="middle" dominant-baseline="middle">802.1X</text>
  <rect x="0" y="490" width="1200" height="140" fill="#0d9488" opacity="0.15"/>
  <rect x="0" y="490" width="1200" height="2" fill="#2dd4bf" opacity="0.5"/>
  <text x="80" y="556" font-family="Arial,sans-serif" font-size="34" font-weight="700"
        fill="#99f6e4" letter-spacing="5">NETWORK AUTH</text>
  <text x="80" y="600" font-family="Arial,sans-serif" font-size="22"
        fill="#2dd4bf" opacity="0.75">AD CS · NPS · EAP-TLS · kursatbal.com</text>
</svg>
