<svg xmlns="http://www.w3.org/2000/svg" viewBox="0 0 1200 630" width="1200" height="630">
  <defs>
    <linearGradient id="bg" x1="0%" y1="0%" x2="100%" y2="100%">
      <stop offset="0%" stop-color="#0c1445"/>
      <stop offset="50%" stop-color="#0f172a"/>
      <stop offset="100%" stop-color="#1e3a8a"/>
    </linearGradient>
    <radialGradient id="glow" cx="25%" cy="35%" r="50%">
      <stop offset="0%" stop-color="#1d4ed8" stop-opacity="0.35"/>
      <stop offset="100%" stop-color="#1d4ed8" stop-opacity="0"/>
    </radialGradient>
    <pattern id="dots" x="0" y="0" width="40" height="40" patternUnits="userSpaceOnUse">
      <circle cx="1" cy="1" r="1.5" fill="#3b82f6" opacity="0.18"/>
    </pattern>
  </defs>
  <rect width="1200" height="630" fill="url(#bg)"/>
  <rect width="1200" height="630" fill="url(#dots)"/>
  <ellipse cx="300" cy="220" rx="500" ry="320" fill="url(#glow)"/>
  <!-- Shield path -->
  <g transform="translate(960,315)" opacity="0.07">
    <path d="M0,-140 L96,-94 L96,24 C96,82 48,124 0,148 C-48,124 -96,82 -96,24 L-96,-94 Z"
          fill="#60a5fa"/>
    <path d="M-36,12 L-12,48 L48,-36"
          stroke="#93c5fd" stroke-width="10" stroke-linecap="round" fill="none"/>
  </g>
  <text x="600" y="370" font-family="Arial Black,sans-serif" font-size="300" font-weight="900"
        fill="#1a56db" opacity="0.07" text-anchor="middle" dominant-baseline="middle">AD</text>
  <rect x="0" y="490" width="1200" height="140" fill="#1a56db" opacity="0.15"/>
  <rect x="0" y="490" width="1200" height="2" fill="#3b82f6" opacity="0.5"/>
  <text x="80" y="556" font-family="Arial,sans-serif" font-size="34" font-weight="700"
        fill="#93c5fd" letter-spacing="5">ACTIVE DIRECTORY</text>
  <text x="80" y="600" font-family="Arial,sans-serif" font-size="22"
        fill="#60a5fa" opacity="0.75">Güvenlik Değerlendirmesi · kursatbal.com</text>
</svg>
